<svg width="85" height="85" viewBox="0 0 85 85" fill="none" xmlns="http://www.w3.org/2000/svg">
<path d="M25.4584 67.75C20.8292 67.75 17.0838 71.5375 17.0838 76.1667C17.0838 80.7958 20.8292 84.5833 25.4584 84.5833C30.0875 84.5833 33.875 80.7958 33.875 76.1667C33.875 71.5375 30.0875 67.75 25.4584 67.75ZM0.208374 0.416656V8.83332H8.62504L23.775 40.7746L18.0938 51.085C17.4205 52.2633 17.0417 53.6521 17.0417 55.125C17.0417 59.7542 20.8292 63.5417 25.4584 63.5417H75.9584V55.125H27.2259C26.6367 55.125 26.1738 54.6621 26.1738 54.0729L26.3 53.5679L30.0875 46.7083H61.4396C64.5959 46.7083 67.3734 44.9829 68.8042 42.3737L83.87 15.0617C84.2067 14.4725 84.375 13.7571 84.375 13.0417C84.375 10.7271 82.4813 8.83332 80.1667 8.83332H17.9255L13.9696 0.416656H0.208374ZM67.5417 67.75C62.9125 67.75 59.1671 71.5375 59.1671 76.1667C59.1671 80.7958 62.9125 84.5833 67.5417 84.5833C72.1709 84.5833 75.9584 80.7958 75.9584 76.1667C75.9584 71.5375 72.1709 67.75 67.5417 67.75Z" fill="#E7E7E7"/>
</svg>
